<svg width="1920" height="1080" viewBox="0 0 1920 1080" fill="none" xmlns="http://www.w3.org/2000/svg">
<rect width="1920" height="1080" fill="#020107"/>
<path d="M258.91 1011.99L248.08 992.266L226.365 998.18L246.093 987.349L240.18 965.635L251.01 985.363L272.725 979.449L252.997 990.28L258.91 1011.99Z" fill="#12072D"/>
<path d="M453.081 660.321L474.05 700.148L517.679 689.081L477.851 710.05L488.918 753.679L467.949 713.851L424.321 724.918L464.148 703.949L453.081 660.321Z" fill="#0D0422"/>
<path d="M61.4646 536.391L83.3721 541.543L93.5074 521.449L88.3555 543.357L108.449 553.492L86.5417 548.34L76.4064 568.434L81.5582 546.527L61.4646 536.391Z" fill="#090318"/>
<path d="M613.474 374.119L606.432 395.494L625.566 407.343L604.191 400.301L592.343 419.435L599.385 398.06L580.251 386.212L601.626 393.253L613.474 374.119Z" fill="#090318"/>
<path d="M345.679 180.042L324.386 219.698L357.958 249.679L318.302 228.386L288.321 261.958L309.614 222.302L276.042 192.321L315.698 213.614L345.679 180.042Z" fill="#140733"/>
<path d="M666.314 35.528L681.01 52.5728L701.02 42.2741L683.975 56.9694L694.274 76.9798L679.579 59.935L659.568 70.2337L676.613 55.5384L666.314 35.528Z" fill="#0F0527"/>
<path d="M1297.68 104.042L1276.39 143.698L1309.96 173.679L1270.3 152.386L1240.32 185.958L1261.61 146.302L1228.04 116.321L1267.7 137.614L1297.68 104.042Z" fill="#090318"/>
<path d="M1625.11 32.9105L1603.16 37.8837L1602.86 60.3868L1597.89 38.438L1575.39 38.137L1597.33 33.1638L1597.64 10.6607L1602.61 32.6094L1625.11 32.9105Z" fill="#130732"/>
<path d="M1759.35 387.199L1772.82 405.227L1793.5 396.349L1775.47 409.82L1784.35 430.5L1770.88 412.471L1750.2 421.349L1768.23 407.879L1759.35 387.199Z" fill="#090318"/>
<path d="M1493.75 289.142L1475.28 330.186L1510.86 357.752L1469.81 339.277L1442.25 374.858L1460.72 333.814L1425.14 306.248L1466.19 324.723L1493.75 289.142Z" fill="#11062D"/>
<path d="M1631.97 708.464L1675.19 721.046L1697.54 681.975L1684.95 725.191L1724.03 747.537L1680.81 734.954L1658.46 774.025L1671.05 730.81L1631.97 708.464Z" fill="#090318"/>
<path d="M1280.47 819.494L1289.54 840.091L1311.69 836.092L1291.09 845.162L1295.09 867.309L1286.02 846.713L1263.88 850.711L1284.47 841.641L1280.47 819.494Z" fill="#100629"/>
<path d="M1505.84 1000.44L1503.01 1022.76L1524.05 1030.74L1501.72 1027.91L1493.74 1048.95L1496.58 1026.63L1475.53 1018.65L1497.86 1021.48L1505.84 1000.44Z" fill="#160936"/>
<path d="M972.059 941.704L988.75 983.505L1033.3 977.059L991.495 993.75L997.941 1038.3L981.25 996.495L936.704 1002.94L978.505 986.25L972.059 941.704Z" fill="#090318"/>
</svg>
